<svg data-name="SF-Logo-Red-Small-Hor" xmlns="http://www.w3.org/2000/svg" viewBox="0 0 131 18">
  <defs>
    <style>
      .cls-1 {
        fill: #ec0c21;
      }
    </style>
  </defs>
  <path shape-rendering="geometricPrecision" class="cls-1" d="M75.7921,5.2907c-.6707-.4554-1.6394-.6707-2.5915-.6707-2.1527,0-3.6845,1.0681-4.6946,2.5584-1.0018,1.4986-1.4738,3.4278-1.4738,5.1417,0,1.242,.1822,2.4011,.9439,3.4443,.3726,.5133,1.2751,1.7387,4.1978,1.7387,2.0285,0,2.989-.5299,3.5106-.828l.0911-.1159c.0994-.4471,.4471-2.4591,.5796-2.9724l-.1076-.0828c-1.0267,.8114-2.1444,1.4075-3.4112,1.4075-.8528,0-1.4986-.1987-1.9374-.5961-.4388-.3891-.6458-.9604-.6458-1.6642,0-.2649,.0248-.4968,.0414-.7617l.0083-.058h.058c1.9871-.0497,2.9972-.0745,4.6615-.0745,.5465,0,1.1592,0,1.896,.0083l.1242-.0911c.1656-.77,.3477-1.6559,.3477-2.7323-.0083-.977-.1076-2.6826-1.598-3.6513Zm-1.3165,4.2144l-.0083,.058-1.9457,.0248-1.9209,.0248,.0166-.0662,.0083-.0248c.0414-.1325,.0828-.2815,.1325-.4305,.1325-.4223,.3229-.8859,.6541-1.3082,.058-.0745,.1159-.149,.1822-.2153,.5961-.6541,1.1592-.7534,1.5235-.7534,.5133,0,.8942,.207,1.1343,.5133,.0414,.058,.0745,.1076,.1076,.1656,.1159,.207,.1904,.4388,.2235,.6789,.0083,.0828,.0166,.1822,.0166,.2649,.0083,.356-.058,.7203-.1242,1.0681Zm-7.5511-2.1941l-.1325,.1325-1.9126-.0497-.8859,4.1812c-.1242,.5216-.3974,1.8298-.3974,2.2521,0,.3974,.149,.6624,.356,.8197,.207,.1573,.4637,.2153,.6955,.2153,.5299,0,.7203-.149,1.0764-.2815l.0662,.058-.4719,2.4094-.1656,.1573c-.6541,.1408-1.1426,.2484-1.8381,.2484-1.7801-.0083-3.0635-.6044-3.0718-2.6826,0-.9687,.3891-2.7406,.6872-4.057l.7038-3.3119-1.5069,.0497-.0911-.1325,.4388-2.3349,.1408-.0745h1.5235l.6127-3.08,.1159-.1325c1.5317-.3891,1.9706-.5796,3.3615-1.035l.0745,.0828-.4637,1.9788-.4802,2.2355,1.9623-.058,.0497,.0994-.4471,2.31Zm23.6219-3.9411l-.1076,.1159-5.0506-.0083-.8197,4.2144,4.4213-.1325,.0662,.1076c-.3643,1.2088-.4471,1.5566-.6955,2.6164l-.1159,.1076-4.2061-.0083-.5547,2.9227-.7038,3.8004-.0911,.0911-3.6265,.0911-.0414-.0911,.6293-3.2374,.9604-4.5704c.7286-3.552,.9356-4.6863,1.6145-8.5529l.1076-.1076h5.2907l3.3615-.0911,.0662,.0911-.5051,2.6412Zm7.1453,2.0534c-.7038-.4968-1.8298-.7534-3.3615-.7534-.7617,0-1.5235,.0745-2.2935,.2236-.6872,.1325-1.1178,.2401-1.4821,.3477l-.0994,.0994-.4968,2.5584,.1656,.0994c.3229-.149,.7948-.3312,1.4075-.5465,.6375-.2236,1.2171-.3395,1.747-.3395,.77,0,1.3579,.1076,1.7636,.3229,.414,.2236,.7038,.7121,.7038,1.242,0,.1325-.0083,.2484-.0248,.356-.0166,.0994-.0331,.1739-.0414,.2153l-.0083,.058s-.2484,.0166-.5133,.0414c-.1739,.0166-.3974,.0414-.6541,.0745-.4223,.0414-.9108,.1076-1.333,.1739-1.0184,.1656-3.8749,.6127-4.736,2.5253-.9025,1.5731-.7452,3.6513,.1408,4.6615,.3146,.356,.7866,.6955,1.4241,.828h0c.0248,.0083,.1242,.0248,.149,.0248,2.4756,.3809,4.2475-1.7718,4.2475-1.7718l-.265,1.3247,.1076,.0911,2.782-.0911,.1159-.0994,1.6311-8.2134c.0331-.1739,.058-.3809,.0828-.6127,.0166-.2318,.0331-.4305,.0331-.5713-.0166-1.0432-.4968-1.7718-1.1923-2.2686Zm-2.8648,8.2134s-.6624,1.0432-1.6228,1.4158-1.6559,.0745-1.9209-.2898c-.2153-.2898-.6707-1.2088,.1904-2.2355,.8776-1.0432,3.7673-1.1095,3.7673-1.1095l-.414,2.219Zm13.4876-9.1242l-.6789,3.5354-.1408,.149c-.1904-.0331-.4388-.0662-.7369-.0662-.919,0-2.2189,.2981-3.2374,1.6477l-.0083,.0083-1.4075,7.3275-.0994,.0911-3.0469,.0911-.0745-.0828,2.4011-12.3036,.1325-.1325,3.0221-.2898,.1159,.1325-.3477,1.7801,.149-.1325c.6293-.5713,1.1923-.9687,1.8132-1.3247s1.242-.5299,1.8629-.5299h.1904l.0911,.0994Zm16.3275,3.0883c0,.7452-.1656,1.5152-.3312,2.2686l-1.4158,7.2364-.1076,.0911-3.196,.1159-.0828-.1159s1.6394-7.9899,1.6394-8.3873c0-.3643-.1904-1.333-1.2088-1.333-.8031,0-1.6311,.8114-1.6311,.8114l-1.7222,8.8261-.1076,.0911-1.3744,.0497h0l-1.2337,.0414-.6044,.0166-.0331-.0497-.0414-.058s.2484-1.2171,.5547-2.724h-.0083c.4802-2.3597,1.0846-5.4232,1.0846-5.6633,0-.3643-.1904-1.333-1.2088-1.333-.7949,0-1.6228,.8114-1.6228,.8114l-1.7222,8.8261-.1076,.0911-.4968,.0166-2.7157,.0911-.0662-.1076,2.3928-12.287,.1242-.1242,3.1877-.2981,.1325,.1325-.3395,1.7305s1.54-1.6808,3.494-1.7222c1.8298-.0331,2.2107,1.7222,2.2107,1.7222,0,0,1.8215-1.7636,3.759-1.7222,.9771-.0166,2.7986,.414,2.7986,2.9558ZM57.966,5.4232c-.7038-.4968-1.8215-.7534-3.3615-.7534-.7617,0-1.5317,.0745-2.2935,.2236-.6872,.1325-1.1178,.2401-1.4821,.3477l-.0994,.0994-.4968,2.5584,.1573,.0994c.3229-.149,.7948-.3312,1.4158-.5465,.6375-.2236,1.2171-.3395,1.747-.3395,.77,0,1.3579,.1076,1.7636,.3229,.414,.2236,.7038,.7121,.7038,1.242,0,.1325-.0083,.2484-.0248,.356-.0248,.0994-.0331,.1739-.0414,.2153l-.0083,.058s-.2484,.0166-.5133,.0414c-.1739,.0166-.3974,.0414-.6541,.0745-.4223,.0414-.9108,.1076-1.333,.1739-1.0184,.1656-3.8749,.6127-4.736,2.5253-.9025,1.5731-.7452,3.6513,.1408,4.6615,.3064,.356,.7866,.6955,1.4241,.828h0c.0248,.0083,.1242,.0248,.149,.0248,2.4756,.3809,4.2475-1.7718,4.2475-1.7718l-.2649,1.3247,.1076,.0911,2.782-.0911,.1159-.0994,1.6311-8.2134c.0331-.1739,.0662-.3809,.0828-.6127s.0331-.4305,.0331-.5713c-.0083-1.0432-.4802-1.7718-1.1923-2.2686Zm-2.8565,8.2134s-.6624,1.0432-1.6228,1.4158c-.9604,.3726-1.6477,.0745-1.9209-.2898-.2153-.2898-.6707-1.2088,.1904-2.2355,.8776-1.0432,3.7673-1.1095,3.7673-1.1095l-.414,2.219Zm-6.6982-6.3257l-.1325,.1325-1.9126-.0497-.8859,4.1812c-.1242,.5216-.3974,1.8298-.3974,2.2521,0,.3974,.149,.6624,.356,.8197,.207,.1573,.4637,.2153,.6955,.2153,.5299,0,.7203-.149,1.0764-.2815l.0662,.058-.4719,2.4094-.1656,.1573c-.6541,.1408-1.1426,.2484-1.8381,.2484-1.7801-.0083-3.0635-.6044-3.0718-2.6826,0-.9687,.3974-2.7406,.6872-4.057l.7038-3.3119-1.5069,.0497-.0911-.1325,.4388-2.3349,.1408-.0745h1.5235l.6127-3.08,.1159-.1325c1.5317-.3891,1.9706-.5796,3.3698-1.035l.0745,.0828-.4637,1.9788-.4719,2.2355,1.9623-.058,.058,.0994-.4719,2.31Zm-7.1868-5.6716l-.5796,2.9972-.1325,.0414c-.2318-.3229-.3726-.4554-.6955-.7038-.7203-.5465-1.5649-.8611-2.4342-.8611-.6789,0-1.242,.2153-1.6311,.563-.3974,.356-.621,.8528-.621,1.4158,0,1.0598,.7286,1.5731,2.012,2.3431l.4968,.2815c1.0764,.7038,2.7488,1.7884,2.7488,4.2475,0,2.7985-1.7967,5.5971-6.0856,5.6053-1.0515,0-2.0865-.1904-3.08-.5547-.6707-.2567-.9936-.4802-1.3993-.7783l-.0331-.1904,.5713-2.9227,.1242-.0414c.2567,.3312,.5796,.6044,1.0681,.9273,1.035,.6872,2.0285,.7617,2.4508,.7617,1.5152,0,2.7075-.8694,2.7075-2.2107,0-1.2006-.9522-1.805-1.9457-2.3928l-.6872-.4223c-1.0846-.7038-2.5833-1.6725-2.5833-4.0819,0-.9273,.2649-2.2603,1.0846-3.3533,1.0846-1.4324,2.7902-1.954,4.5041-1.954,2.2107,0,3.4692,.7783,4.0653,1.1592l.0745,.1242ZM10.1592,6.9218c.8694,.5382,2.0948,.8776,3.4692,.8776s2.6081-.3395,3.494-.8776,1.4075-1.2585,1.4075-2.0285-.5216-1.4821-1.3993-2.012c-.8776-.5299-2.1113-.8694-3.4857-.8694s-2.5998,.3395-3.4775,.8694c-.8776,.5299-1.391,1.2502-1.391,2.012s.5133,1.4903,1.3827,2.0285Zm.2236,4.1398c-.8776-.5299-2.1113-.8694-3.4857-.8694s-2.5998,.3312-3.4775,.8611c-.8776,.5299-1.391,1.242-1.391,2.012s.5133,1.4903,1.3827,2.0285c.8694,.5299,2.0948,.8776,3.4692,.8776s2.6081-.3477,3.494-.8776c.8859-.5382,1.4075-1.2585,1.4075-2.0285,0-.7535-.5216-1.4738-1.3993-2.0037Zm13.4627,0c-.8776-.5299-2.1113-.8694-3.494-.8694-1.3744,0-2.5998,.3312-3.4775,.8611-.8776,.5299-1.391,1.242-1.391,2.012s.5133,1.4903,1.3827,2.0285c.8694,.5299,2.0948,.8776,3.4692,.8776s2.6081-.3477,3.494-.8776c.8859-.5382,1.4075-1.2585,1.4075-2.0285,.0083-.7535-.5133-1.4738-1.391-2.0037Zm-3.5023-2.873c-.621,0-1.2254,.058-1.7967,.1656,1.2502-.8942,2.012-2.1196,2.012-3.4692,0-2.724-3.0883-4.885-6.9301-4.885-3.8335,0-6.897,2.161-6.897,4.885,0,1.3579,.7534,2.5833,1.9871,3.4692-.5796-.1076-1.1923-.1656-1.8215-.1656-3.8335,0-6.897,2.161-6.897,4.885,0,2.7157,3.0386,4.9264,6.8804,4.9264,3.2622,0,6.0028-1.598,6.7479-3.7507,.7286,2.1527,3.4195,3.7507,6.6817,3.7507,3.8335,0,6.9466-2.2107,6.9466-4.9264,.0083-2.724-3.08-4.885-6.9135-4.885ZM7.9899,4.885c0-1.2254,.9356-2.0534,1.4821-2.4342,1.0929-.7783,2.5667-1.1923,4.1647-1.1923s3.08,.4223,4.1812,1.1923c.5465,.3891,1.4903,1.2171,1.4986,2.4342-.0166,2.0451-2.6412,3.6679-5.6964,3.6762-1.5897,0-3.0552-.4223-4.1481-1.2088-.9439-.6789-1.4821-1.5566-1.4821-2.4673Zm-1.0929,11.8565c-1.5897,0-3.0635-.4223-4.1481-1.2088-.9439-.6789-1.4738-1.5483-1.4738-2.4591,.0083-1.2254,.9356-2.0534,1.4821-2.4425,1.0929-.77,2.5667-1.1923,4.1647-1.1923s3.08,.4223,4.1812,1.1923c.5465,.3891,1.4903,1.2171,1.4986,2.4342-.0331,2.0451-2.6578,3.6679-5.7047,3.6762Zm6.7479-4.8436c-.2981-.8694-.9273-1.6394-1.7801-2.2521,.563,.1076,1.1426,.1573,1.747,.1573,.621,0,1.2254-.058,1.7967-.1656-.8445,.621-1.4738,1.391-1.7636,2.2603Zm6.6817,4.8436c-1.5897,0-3.0552-.4223-4.1481-1.2088-.9439-.6789-1.4821-1.5483-1.4821-2.4591,0-1.2254,.9356-2.0534,1.4821-2.4425,1.0929-.77,2.5667-1.1923,4.1647-1.1923s3.08,.4223,4.1812,1.1923c.5465,.3891,1.4903,1.2171,1.4903,2.4342-.0166,2.0451-2.6412,3.6679-5.6881,3.6762Z"/>
  <path shape-rendering="geometricPrecision" class="cls-1" d="M130.0405,6.7728c0,1.2254-.8776,2.1527-2.0368,2.1527-1.1509,0-2.0368-.9273-2.0368-2.1527,0-1.2502,.8694-2.1527,2.0534-2.1527,1.1426-.0083,2.0203,.9273,2.0203,2.1527m-3.8087-.0083c0,1.0432,.7949,1.896,1.7718,1.896s1.7718-.8445,1.7718-1.896c0-.4968-.1904-1.0101-.5051-1.3413-.3063-.3312-.7949-.5382-1.242-.5382-1.0349-.0083-1.7967,.7949-1.7967,1.8795Zm1.6725-1.2171c.2567,0,.3809,.0166,.5216,.058,.2567,.0828,.4223,.3312,.4223,.6044,0,.2898-.1822,.5216-.4719,.6127l.4968,1.1592h-.3395l-.4554-1.1012-.0248-.0083h-.4471l-.0331,.0083v1.1012h-.3146v-2.4425h.6458v.0083Zm-.0166,1.0846c.2981,0,.414-.0166,.5051-.0911,.0994-.0662,.149-.1904,.149-.3229,0-.1739-.0828-.3063-.2318-.356-.0828-.0331-.2236-.0497-.4885-.0497h-.265v.828h.3312v-.0083Z"/>
</svg>